<?xml version="1.0" encoding="UTF-8" standalone="no"?>
<!-- Created with Inkscape (http://www.inkscape.org/) -->

<svg
   xmlns:dc="http://purl.org/dc/elements/1.1/"
   xmlns:cc="http://creativecommons.org/ns#"
   xmlns:rdf="http://www.w3.org/1999/02/22-rdf-syntax-ns#"
   xmlns:svg="http://www.w3.org/2000/svg"
   xmlns="http://www.w3.org/2000/svg"
   xmlns:sodipodi="http://sodipodi.sourceforge.net/DTD/sodipodi-0.dtd"
   xmlns:inkscape="http://www.inkscape.org/namespaces/inkscape"
   id="svg3093"
   version="1.1"
   inkscape:version="0.48.4 r9939"
   width="354.33125"
   height="354.33125"
   xml:space="preserve"
   sodipodi:docname="ikon.pdf"><metadata
     id="metadata3099"><rdf:RDF><cc:Work
         rdf:about=""><dc:format>image/svg+xml</dc:format><dc:type
           rdf:resource="http://purl.org/dc/dcmitype/StillImage" /><dc:title></dc:title></cc:Work></rdf:RDF></metadata><defs
     id="defs3097" /><sodipodi:namedview
     pagecolor="#ffffff"
     bordercolor="#666666"
     borderopacity="1"
     objecttolerance="10"
     gridtolerance="10"
     guidetolerance="10"
     inkscape:pageopacity="0"
     inkscape:pageshadow="2"
     inkscape:window-width="1366"
     inkscape:window-height="706"
     id="namedview3095"
     showgrid="false"
     inkscape:zoom="0.66604345"
     inkscape:cx="177.16562"
     inkscape:cy="177.16562"
     inkscape:window-x="-8"
     inkscape:window-y="-8"
     inkscape:window-maximized="1"
     inkscape:current-layer="g3101" /><g
     id="g3101"
     inkscape:groupmode="layer"
     inkscape:label="ikon"
     transform="matrix(1.25,0,0,-1.25,0,354.33125)"><path
       d="m 255.118,198.605 -226.772,0 0,56.513 226.772,0 0,-56.513 z"
       style="fill:#FFFFFF;fill-opacity:1;fill-rule:nonzero;stroke:none"
       id="path3103" /><path
       d="m 85.04,141.847 -56.693,0 0,28.412 56.693,0 0,-28.412 z"
       style="fill:#FFFFFF;fill-opacity:1;fill-rule:nonzero;stroke:none"
       id="path3105" /><path
       d="m 170.079,141.847 -56.693,0 0,28.412 56.693,0 0,-28.412 z"
       style="fill:#FFFFFF;fill-opacity:1;fill-rule:nonzero;stroke:none"
       id="path3107" /><path
       d="m 255.118,141.847 -56.692,0 0,28.412 56.692,0 0,-28.412 z"
       style="fill:#FFFFFF;fill-opacity:1;fill-rule:nonzero;stroke:none"
       id="path3109" /><path
       d="m 85.04,85.089 -56.693,0 0,28.412 56.693,0 0,-28.412 z"
       style="fill:#FFFFFF;fill-opacity:1;fill-rule:nonzero;stroke:none"
       id="path3111" /><path
       d="m 170.079,85.089 -56.693,0 0,28.412 56.693,0 0,-28.412 z"
       style="fill:#FFFFFF;fill-opacity:1;fill-rule:nonzero;stroke:none"
       id="path3113" /><path
       d="m 255.118,85.089 -56.692,0 0,28.412 56.692,0 0,-28.412 z"
       style="fill:#FFFFFF;fill-opacity:1;fill-rule:nonzero;stroke:none"
       id="path3115" /><path
       d="m 85.04,28.395 -56.693,0 0,28.412 56.693,0 0,-28.412 z"
       style="fill:#FFFFFF;fill-opacity:1;fill-rule:nonzero;stroke:none"
       id="path3117" /><path
       d="m 170.079,28.395 -56.693,0 0,28.412 56.693,0 0,-28.412 z"
       style="fill:#FFFFFF;fill-opacity:1;fill-rule:nonzero;stroke:none"
       id="path3119" /><path
       d="m 255.118,28.395 -56.692,0 0,28.412 56.692,0 0,-28.412 z"
       style="fill:#FFFFFF;fill-opacity:1;fill-rule:nonzero;stroke:none"
       id="path3121" /></g></svg>