<?xml version="1.0" encoding="UTF-8" standalone="no"?>
<!-- Created with Inkscape (http://www.inkscape.org/) -->

<svg
   xmlns:dc="http://purl.org/dc/elements/1.1/"
   xmlns:cc="http://creativecommons.org/ns#"
   xmlns:rdf="http://www.w3.org/1999/02/22-rdf-syntax-ns#"
   xmlns:svg="http://www.w3.org/2000/svg"
   xmlns="http://www.w3.org/2000/svg"
   xmlns:sodipodi="http://sodipodi.sourceforge.net/DTD/sodipodi-0.dtd"
   xmlns:inkscape="http://www.inkscape.org/namespaces/inkscape"
   id="svg3015"
   version="1.1"
   inkscape:version="0.48.4 r9939"
   width="354.33125"
   height="354.33125"
   xml:space="preserve"
   sodipodi:docname="ikon.pdf"><metadata
     id="metadata3021"><rdf:RDF><cc:Work
         rdf:about=""><dc:format>image/svg+xml</dc:format><dc:type
           rdf:resource="http://purl.org/dc/dcmitype/StillImage" /><dc:title></dc:title></cc:Work></rdf:RDF></metadata><defs
     id="defs3019"><clipPath
       clipPathUnits="userSpaceOnUse"
       id="clipPath3033"><path
         d="m 28.346,28.346 226.772,0 0,226.772 -226.772,0 0,-226.772 z"
         id="path3035" /></clipPath></defs><sodipodi:namedview
     pagecolor="#ffffff"
     bordercolor="#666666"
     borderopacity="1"
     objecttolerance="10"
     gridtolerance="10"
     guidetolerance="10"
     inkscape:pageopacity="0"
     inkscape:pageshadow="2"
     inkscape:window-width="1366"
     inkscape:window-height="706"
     id="namedview3017"
     showgrid="false"
     inkscape:zoom="0.66604345"
     inkscape:cx="177.16562"
     inkscape:cy="177.16562"
     inkscape:window-x="-8"
     inkscape:window-y="-8"
     inkscape:window-maximized="1"
     inkscape:current-layer="g3023" /><g
     id="g3023"
     inkscape:groupmode="layer"
     inkscape:label="ikon"
     transform="matrix(1.25,0,0,-1.25,0,354.33125)"><g
       id="g3025"
       transform="translate(240.9461,226.772)"><path
         d="m 0,0 -26.174,0 0,17.008 L -42.521,28.346 -212.6,0 l 0,-8.504 221.765,0 0,-189.922 5.008,0 0,189.922 L 0,0 z"
         style="fill:#FFFFFF;fill-opacity:1;fill-rule:nonzero;stroke:none"
         id="path3027" /></g><g
       id="g3029"><g
         id="g3031"
         clip-path="url(#clipPath3033)"><g
           id="g3037"
           transform="translate(178.8072,89.3961)"><path
             d="m 0,0 c -10.357,-8.179 -23.197,-12.718 -36.684,-12.718 -13.642,0 -26.605,4.646 -37.011,12.982 -27.427,-10.065 -39.674,-45.25 -39.674,-61.314 l 152.59,0 C 39.221,-45.124 26.881,-10.19 0,0 m 7.762,46.541 c 0,-24.547 -19.899,-44.444 -44.446,-44.444 -24.545,0 -44.442,19.897 -44.442,44.444 0,24.544 19.897,44.443 44.442,44.443 24.547,0 44.446,-19.899 44.446,-44.443"
             style="fill:#FFFFFF;fill-opacity:1;fill-rule:nonzero;stroke:none"
             id="path3039" /></g></g></g></g></svg>