<?xml version="1.0" encoding="UTF-8" standalone="no"?>
<!-- Created with Inkscape (http://www.inkscape.org/) -->

<svg
   xmlns:dc="http://purl.org/dc/elements/1.1/"
   xmlns:cc="http://creativecommons.org/ns#"
   xmlns:rdf="http://www.w3.org/1999/02/22-rdf-syntax-ns#"
   xmlns:svg="http://www.w3.org/2000/svg"
   xmlns="http://www.w3.org/2000/svg"
   xmlns:sodipodi="http://sodipodi.sourceforge.net/DTD/sodipodi-0.dtd"
   xmlns:inkscape="http://www.inkscape.org/namespaces/inkscape"
   id="svg3063"
   version="1.1"
   inkscape:version="0.48.4 r9939"
   width="354.33125"
   height="354.33125"
   xml:space="preserve"
   sodipodi:docname="ikon.pdf"><metadata
     id="metadata3069"><rdf:RDF><cc:Work
         rdf:about=""><dc:format>image/svg+xml</dc:format><dc:type
           rdf:resource="http://purl.org/dc/dcmitype/StillImage" /><dc:title></dc:title></cc:Work></rdf:RDF></metadata><defs
     id="defs3067"><clipPath
       clipPathUnits="userSpaceOnUse"
       id="clipPath3077"><path
         d="m 28.346,28.346 226.772,0 0,226.772 -226.772,0 0,-226.772 z"
         id="path3079" /></clipPath></defs><sodipodi:namedview
     pagecolor="#ffffff"
     bordercolor="#666666"
     borderopacity="1"
     objecttolerance="10"
     gridtolerance="10"
     guidetolerance="10"
     inkscape:pageopacity="0"
     inkscape:pageshadow="2"
     inkscape:window-width="1366"
     inkscape:window-height="706"
     id="namedview3065"
     showgrid="false"
     inkscape:zoom="0.66604345"
     inkscape:cx="177.16562"
     inkscape:cy="177.16562"
     inkscape:window-x="-8"
     inkscape:window-y="-8"
     inkscape:window-maximized="1"
     inkscape:current-layer="g3071" /><g
     id="g3071"
     inkscape:groupmode="layer"
     inkscape:label="ikon"
     transform="matrix(1.25,0,0,-1.25,0,354.33125)"><g
       id="g3073"><g
         id="g3075"
         clip-path="url(#clipPath3077)"><g
           id="g3081"
           transform="translate(113.3897,71.318)"><path
             d="m 0,0 c -22.75,0 -41.192,18.442 -41.192,41.195 0,22.75 18.442,41.193 41.192,41.193 22.752,0 41.195,-18.443 41.195,-41.193 C 41.195,18.442 22.752,0 0,0 m 85.046,25.76 0,32.243 -18.203,0.061 c -1.696,7.028 -4.467,13.634 -8.137,19.635 L 71.535,90.618 48.737,113.416 35.818,100.588 c -5.999,3.668 -12.606,6.439 -19.632,8.135 l -0.065,18.203 -32.24,0 -0.065,-18.204 c -7.026,-1.695 -13.631,-4.467 -19.632,-8.135 l -12.92,12.829 -22.798,-22.799 12.829,-12.919 c -3.669,-6 -6.44,-12.606 -8.136,-19.634 l -18.202,-0.061 0,-32.243 18.203,-0.064 c 1.695,-7.027 4.467,-13.633 8.135,-19.633 l -12.829,-12.919 22.799,-22.798 12.919,12.829 c 6.001,-3.669 12.606,-6.442 19.633,-8.137 l 0.064,-18.202 32.24,0 0.066,18.202 c 7.026,1.697 13.632,4.468 19.632,8.137 L 48.738,-29.653 71.535,-6.855 58.707,6.063 c 3.669,6 6.441,12.606 8.136,19.633 l 18.203,0.064 z"
             style="fill:#FFFFFF;fill-opacity:1;fill-rule:nonzero;stroke:none"
             id="path3083" /></g><g
           id="g3085"
           transform="translate(142.4436,112.5134)"><path
             d="m 0,0 c 0,-16.048 -13.007,-29.054 -29.054,-29.054 -16.044,0 -29.05,13.006 -29.05,29.054 0,16.045 13.006,29.051 29.05,29.051 C -13.007,29.051 0,16.045 0,0"
             style="fill:#FFFFFF;fill-opacity:1;fill-rule:nonzero;stroke:none"
             id="path3087" /></g><g
           id="g3089"
           transform="translate(217.6576,198.3939)"><path
             d="m 0,0 c -7.543,-2.746 -15.884,1.144 -18.63,8.688 -2.746,7.543 1.144,15.884 8.688,18.629 7.545,2.746 15.884,-1.142 18.63,-8.685 C 11.434,11.086 7.545,2.746 0,0 m 29.107,17.812 8.546,3.144 -5.517,15.159 -8.568,-3.087 c -2,3.014 -4.434,5.646 -7.186,7.839 l 3.819,8.27 -14.618,6.817 -3.879,-8.243 c -3.447,0.698 -7.027,0.872 -10.621,0.466 l -3.146,8.547 -15.157,-5.517 3.084,-8.57 c -3.012,-1.998 -5.643,-4.432 -7.837,-7.183 l -8.27,3.82 -6.817,-14.619 8.243,-3.88 c -0.699,-3.448 -0.872,-7.028 -0.466,-10.623 l -8.547,-3.142 5.517,-15.159 8.569,3.085 c 1.999,-3.015 4.433,-5.646 7.184,-7.839 l -3.82,-8.269 14.62,-6.817 3.878,8.243 c 3.449,-0.699 7.028,-0.872 10.622,-0.467 l 3.146,-8.546 15.157,5.516 -3.083,8.57 c 3.013,2 5.644,4.433 7.837,7.185 l 8.269,-3.821 6.815,14.619 -8.241,3.879 c 0.698,3.448 0.874,7.029 0.467,10.623"
             style="fill:#FFFFFF;fill-opacity:1;fill-rule:nonzero;stroke:none"
             id="path3091" /></g></g></g></g></svg>