<?xml version="1.0" encoding="utf-8"?>
<!-- Generator: Adobe Illustrator 17.0.0, SVG Export Plug-In . SVG Version: 6.00 Build 0)  -->
<!DOCTYPE svg PUBLIC "-//W3C//DTD SVG 1.1//EN" "http://www.w3.org/Graphics/SVG/1.1/DTD/svg11.dtd">
<svg version="1.1" id="Layer_1" xmlns="http://www.w3.org/2000/svg" xmlns:xlink="http://www.w3.org/1999/xlink" x="0px" y="0px"
	 width="36px" height="36px" viewBox="0 0 36 36" enable-background="new 0 0 36 36" xml:space="preserve">
<path fill="#585858" d="M-7,2h-30c-1.654,0-3,1.346-3,3v28c0,1.654,1.346,3,3,3h30c1.654,0,3-1.346,3-3V5C-4,3.346-5.346,2-7,2z"/>
<rect x="-27" y="4" fill="#FFFFFF" width="21" height="30"/>
<rect x="-11.52" y="11.611" transform="matrix(0.7071 -0.7071 0.7071 0.7071 -16.0946 -1.634)" fill="#585858" width="3" height="14"/>
<rect x="-11.52" y="19.389" transform="matrix(-0.7071 -0.7071 0.7071 -0.7071 -35.7646 37.964)" fill="#585858" width="3" height="14"/>
<rect x="-23.067" y="21" fill="#585858" width="15" height="3"/>
<polygon fill="#FFFFFF" points="-4,18.267 -11.787,10.479 -13.909,12.6 -4.009,22.5 -4,22.491 "/>
<polygon fill="#FFFFFF" points="-4,22.491 -13.909,32.399 -11.787,34.521 -4,26.733 "/>
<path fill="#585858" d="M-7,2v2c0.552,0,1,0.449,1,1h2C-4,3.346-5.346,2-7,2z"/>
<path fill="#585858" d="M-7,34v2c1.654,0,3-1.346,3-3h-2C-6,33.552-6.448,34-7,34z"/>
<rect x="2" y="4" fill="#FFFFFF" width="32" height="30"/>
<path fill="#585858" d="M33,36H3c-1.654,0-3-1.346-3-3V5c0-1.654,1.346-3,3-3h30c1.654,0,3,1.346,3,3v28C36,34.654,34.654,36,33,36z
	 M3,4C2.449,4,2,4.449,2,5v28c0,0.552,0.449,1,1,1h30c0.552,0,1-0.448,1-1V5c0-0.551-0.448-1-1-1H3z"/>
<path fill="#585858" d="M23.959,11.37l-1.699,2.461c1.951,1.355,3.241,3.596,3.241,6.146c0,4.135-3.364,7.5-7.5,7.5
	s-7.5-3.364-7.5-7.5c0-2.548,1.288-4.789,3.237-6.144l-1.701-2.46C9.306,13.27,7.5,16.408,7.5,19.977c0,5.79,4.71,10.5,10.5,10.5
	s10.5-4.71,10.5-10.5C28.5,16.405,26.692,13.266,23.959,11.37z"/>
<path fill="#585858" d="M20,18c0,0.552-0.448,1-1,1h-2c-0.552,0-1-0.448-1-1V9c0-0.552,0.448-1,1-1h2c0.552,0,1,0.448,1,1V18z"/>
</svg>
