<?xml version="1.0" encoding="utf-8"?>
<!-- Generator: Adobe Illustrator 17.0.0, SVG Export Plug-In . SVG Version: 6.00 Build 0)  -->
<!DOCTYPE svg PUBLIC "-//W3C//DTD SVG 1.1//EN" "http://www.w3.org/Graphics/SVG/1.1/DTD/svg11.dtd">
<svg version="1.1" id="Layer_1" xmlns="http://www.w3.org/2000/svg" xmlns:xlink="http://www.w3.org/1999/xlink" x="0px" y="0px"
	 width="36px" height="36px" viewBox="0 0 36 36" enable-background="new 0 0 36 36" xml:space="preserve">
<rect x="6" y="8" fill="#FFFFFF" width="28" height="26"/>
<path fill="#585858" d="M29.006,29.422c-0.101-0.548-0.185-1.161-0.707-1.525c-1.192-0.829-2.72-1.53-4.067-2.142
	c-0.652-0.291-0.647-0.343-0.771-0.906c-0.085-0.364-0.588-0.187-0.514-0.798c0.133-1.084,1.137-1.7,1.492-2.645
	c0.155-0.41,0.307-0.907,0.215-1.342c-0.029-0.14-0.104-0.29-0.261-0.35c-0.315-0.117-0.098-0.565-0.064-0.856
	c0.077-0.598,0.31-1.334,0.26-2.062h-0.018c-0.124-1.019-0.976-1.789-1.549-2.68c-0.34-0.538-0.453-0.547-1.111-0.85
	c0.1-0.105,0.181-0.194,0.29-0.297c-0.648-0.204-1.787-0.606-2.471-0.423c-0.516,0.129-0.888,0.511-1.403,0.655
	c-0.423,0.129-0.928,0.277-1.302,0.506c-0.184,0.113-0.006,0.172,0.013,0.321c0.032,0.256-0.362,0.553-0.517,0.745
	c-0.362,0.459-0.802,1.051-1.002,1.589c-0.053,0.142-0.077,0.29-0.089,0.435h-0.018c-0.05,0.728,0.183,1.464,0.261,2.062
	c0.034,0.291,0.25,0.727-0.064,0.844c-0.157,0.06-0.232,0.215-0.261,0.356c-0.093,0.435,0.059,0.934,0.214,1.344
	c0.356,0.945,1.359,1.562,1.492,2.646c0.074,0.611-0.43,0.432-0.515,0.796c-0.124,0.563-0.119,0.61-0.771,0.901
	c-1.347,0.611-2.875,1.304-4.067,2.133c-0.522,0.363-0.607,0.994-0.706,1.543c-0.12,0.684-0.182,1.059-0.35,2.078H20h9.356
	C29.187,30.481,29.126,30.106,29.006,29.422z"/>
<path fill="#585858" d="M33,36H7c-1.654,0-3-1.346-3-3V9c0-1.654,1.346-3,3-3h26c1.654,0,3,1.346,3,3v24C36,34.654,34.654,36,33,36z
	 M7,8C6.449,8,6,8.449,6,9v24c0,0.552,0.449,1,1,1h26c0.552,0,1-0.448,1-1V9c0-0.551-0.448-1-1-1H7z"/>
<path fill="none" d="M70,29V5c0-0.551-0.449-1-1-1v26C69.551,30,70,29.552,70,29z"/>
<path fill="#585858" d="M29,2H3C1.346,2,0,3.346,0,5v24v2h2v-2V5c0-0.551,0.449-1,1-1h26h2V2H29z"/>
</svg>
