<?xml version="1.0" encoding="UTF-8" standalone="no"?>
<!-- Created with Inkscape (http://www.inkscape.org/) -->

<svg
   xmlns:dc="http://purl.org/dc/elements/1.1/"
   xmlns:cc="http://creativecommons.org/ns#"
   xmlns:rdf="http://www.w3.org/1999/02/22-rdf-syntax-ns#"
   xmlns:svg="http://www.w3.org/2000/svg"
   xmlns="http://www.w3.org/2000/svg"
   xmlns:sodipodi="http://sodipodi.sourceforge.net/DTD/sodipodi-0.dtd"
   xmlns:inkscape="http://www.inkscape.org/namespaces/inkscape"
   id="svg3153"
   version="1.1"
   inkscape:version="0.48.4 r9939"
   width="354.33125"
   height="354.33125"
   xml:space="preserve"
   sodipodi:docname="ikon.pdf"><metadata
     id="metadata3159"><rdf:RDF><cc:Work
         rdf:about=""><dc:format>image/svg+xml</dc:format><dc:type
           rdf:resource="http://purl.org/dc/dcmitype/StillImage" /><dc:title></dc:title></cc:Work></rdf:RDF></metadata><defs
     id="defs3157"><clipPath
       clipPathUnits="userSpaceOnUse"
       id="clipPath3167"><path
         d="m 50.435,28.346 182.595,0 0,226.772 -182.595,0 0,-226.772 z"
         id="path3169" /></clipPath></defs><sodipodi:namedview
     pagecolor="#ffffff"
     bordercolor="#666666"
     borderopacity="1"
     objecttolerance="10"
     gridtolerance="10"
     guidetolerance="10"
     inkscape:pageopacity="0"
     inkscape:pageshadow="2"
     inkscape:window-width="1366"
     inkscape:window-height="706"
     id="namedview3155"
     showgrid="false"
     inkscape:zoom="0.66604345"
     inkscape:cx="177.16562"
     inkscape:cy="177.16562"
     inkscape:window-x="-8"
     inkscape:window-y="-8"
     inkscape:window-maximized="1"
     inkscape:current-layer="g3161" /><g
     id="g3161"
     inkscape:groupmode="layer"
     inkscape:label="ikon"
     transform="matrix(1.25,0,0,-1.25,0,354.33125)"><g
       id="g3163"><g
         id="g3165"
         clip-path="url(#clipPath3167)"><g
           id="g3171"
           transform="translate(167.0674,195.3259)"><path
             d="m 0,0 c -7.93,4.682 -10.563,14.906 -5.881,22.836 4.683,7.93 14.906,10.562 22.836,5.88 C 24.885,24.034 27.518,13.81 22.836,5.88 18.154,-2.049 7.93,-4.683 0,0 M 24.437,41.385 C -6.739,59.792 -46.934,49.442 -65.341,18.268 -78.565,-4.129 -76.946,-31.18 -63.428,-51.464 l -50.368,-85.767 c -1.955,-3.336 -2.836,-9.175 -1.961,-12.987 l 5.059,-21.94 c 0.878,-3.809 4.574,-6.19 8.217,-5.296 l 16.867,4.158 c 3.646,0.898 8.128,4.417 9.964,7.818 l 20.451,34.295 -1.036,12.334 25.733,28.667 7.287,0.253 6.548,9.776 c 13.747,-1.635 27.656,1.153 39.666,7.825 5.44,2.597 10.11,6.167 14.022,10.473 3.994,3.922 7.552,8.415 10.533,13.463 18.408,31.175 8.057,71.37 -23.117,89.777"
             style="fill:#FFFFFF;fill-opacity:1;fill-rule:nonzero;stroke:none"
             id="path3173" /></g></g></g></g></svg>