<?xml version="1.0" encoding="UTF-8" standalone="no"?>
<!-- Created with Inkscape (http://www.inkscape.org/) -->

<svg
   xmlns:dc="http://purl.org/dc/elements/1.1/"
   xmlns:cc="http://creativecommons.org/ns#"
   xmlns:rdf="http://www.w3.org/1999/02/22-rdf-syntax-ns#"
   xmlns:svg="http://www.w3.org/2000/svg"
   xmlns="http://www.w3.org/2000/svg"
   xmlns:sodipodi="http://sodipodi.sourceforge.net/DTD/sodipodi-0.dtd"
   xmlns:inkscape="http://www.inkscape.org/namespaces/inkscape"
   id="svg3175"
   version="1.1"
   inkscape:version="0.48.4 r9939"
   width="354.33125"
   height="354.33125"
   xml:space="preserve"
   sodipodi:docname="ikon.pdf"><metadata
     id="metadata3181"><rdf:RDF><cc:Work
         rdf:about=""><dc:format>image/svg+xml</dc:format><dc:type
           rdf:resource="http://purl.org/dc/dcmitype/StillImage" /><dc:title></dc:title></cc:Work></rdf:RDF></metadata><defs
     id="defs3179"><clipPath
       clipPathUnits="userSpaceOnUse"
       id="clipPath3189"><path
         d="m 28.346,28.346 226.772,0 0,226.772 -226.772,0 0,-226.772 z"
         id="path3191" /></clipPath></defs><sodipodi:namedview
     pagecolor="#ffffff"
     bordercolor="#666666"
     borderopacity="1"
     objecttolerance="10"
     gridtolerance="10"
     guidetolerance="10"
     inkscape:pageopacity="0"
     inkscape:pageshadow="2"
     inkscape:window-width="1366"
     inkscape:window-height="706"
     id="namedview3177"
     showgrid="false"
     inkscape:zoom="0.66604345"
     inkscape:cx="177.16562"
     inkscape:cy="177.16562"
     inkscape:window-x="-8"
     inkscape:window-y="-8"
     inkscape:window-maximized="1"
     inkscape:current-layer="g3183" /><g
     id="g3183"
     inkscape:groupmode="layer"
     inkscape:label="ikon"
     transform="matrix(1.25,0,0,-1.25,0,354.33125)"><g
       id="g3185"><g
         id="g3187"
         clip-path="url(#clipPath3189)"><g
           id="g3193"
           transform="translate(85.2956,191.5389)"><path
             d="m 0,0 c 4.147,3.175 7.568,7.245 9.982,11.922 l 92.096,-29.038 c -0.182,-1.424 -0.286,-2.872 -0.286,-4.345 0,-8.578 3.181,-16.407 8.418,-22.39 L 78.045,-84.057 c -6.334,3.746 -13.717,5.903 -21.608,5.903 -4.988,0 -9.772,-0.866 -14.219,-2.444 L 0,0 z m 135.807,12.555 c -13.085,0 -24.437,-7.392 -30.127,-18.224 L 13.587,23.368 c 0.211,1.564 0.33,3.156 0.33,4.778 0,19.568 -15.864,35.433 -35.433,35.433 -19.569,0 -35.433,-15.865 -35.433,-35.433 0,-19.57 15.864,-35.434 35.433,-35.434 3.8,0 7.458,0.605 10.89,1.713 l 42.22,-80.601 c -10.703,-7.722 -17.677,-20.292 -17.677,-34.497 0,-23.484 19.037,-42.52 42.52,-42.52 23.481,0 42.519,19.036 42.519,42.52 0,11.267 -4.391,21.504 -11.545,29.112 l 32.161,40.202 c 4.825,-2.625 10.355,-4.117 16.235,-4.117 18.786,0 34.016,15.228 34.016,34.015 0,18.786 -15.23,34.016 -34.016,34.016"
             style="fill:#FFFFFF;fill-opacity:1;fill-rule:nonzero;stroke:none"
             id="path3195" /></g></g></g></g></svg>