<?xml version="1.0" encoding="utf-8"?>
<!-- Generator: Adobe Illustrator 15.1.0, SVG Export Plug-In . SVG Version: 6.00 Build 0)  -->
<!DOCTYPE svg PUBLIC "-//W3C//DTD SVG 1.1//EN" "http://www.w3.org/Graphics/SVG/1.1/DTD/svg11.dtd">
<svg version="1.1" id="Layer_1" xmlns="http://www.w3.org/2000/svg" xmlns:xlink="http://www.w3.org/1999/xlink" x="0px" y="0px"
	 width="14px" height="14px" viewBox="0 0 14 14" enable-background="new 0 0 14 14" xml:space="preserve">
<g>
	<path d="M2.981-0.032c-0.37,0-0.67,0.301-0.67,0.67v2.679c0,0.369,0.3,0.669,0.67,0.669c0.369,0,0.669-0.3,0.669-0.669V0.638
		C3.65,0.269,3.351-0.032,2.981-0.032z"/>
	<path d="M11.02-0.032c-0.369,0-0.67,0.301-0.67,0.67v2.679c0,0.369,0.301,0.669,0.67,0.669c0.371,0,0.67-0.3,0.67-0.669V0.638
		C11.688,0.269,11.391-0.032,11.02-0.032z"/>
	<path d="M13.029,2.312h-0.672v1.005c0,0.737-0.603,1.339-1.34,1.339c-0.735,0-1.34-0.603-1.34-1.339V2.312H4.32v1.005
		c0,0.737-0.602,1.339-1.339,1.339s-1.34-0.603-1.34-1.339V2.312h-0.67c-0.369,0-0.67,0.3-0.67,0.67v2.009v1.005h1.004h11.386h1.007
		V4.991V2.982C13.698,2.613,13.398,2.312,13.029,2.312z"/>
	<path d="M0.302,6.666v6.699c0,0.369,0.301,0.668,0.67,0.668h12.057c0.369,0,0.669-0.299,0.669-0.668V6.666H0.302z M12.357,12.695
		H1.641V8.006h10.718v4.689H12.357z"/>
</g>
<rect x="1.641" y="8.006" fill="#FFFFFF" stroke="#FFFFFF" stroke-miterlimit="10" width="10.718" height="4.688"/>
</svg>
