<?xml version="1.0" encoding="utf-8"?>
<!-- Generator: Adobe Illustrator 15.1.0, SVG Export Plug-In  -->
<!DOCTYPE svg PUBLIC "-//W3C//DTD SVG 1.1//EN" "http://www.w3.org/Graphics/SVG/1.1/DTD/svg11.dtd" [
	<!ENTITY ns_flows "http://ns.adobe.com/Flows/1.0/">
]>
<svg version="1.1"
	 xmlns="http://www.w3.org/2000/svg" xmlns:xlink="http://www.w3.org/1999/xlink" xmlns:a="http://ns.adobe.com/AdobeSVGViewerExtensions/3.0/"
	 x="0px" y="0px" width="330px" height="96px" viewBox="0 0 330 96" overflow="visible" enable-background="new 0 0 330 96"
	 xml:space="preserve">
<defs>
</defs>
<path fill="#585858" d="M109.334,2.436H93.318v13.328l1.512,1.456h14.504c0.812,0,1.232,0.42,1.232,1.232s-0.42,1.232-1.232,1.232
	H94.438c-0.532-0.028-0.672-0.028-1.092-0.448l-2.044-2.072c-0.28-0.224-0.42-0.532-0.42-0.952V1.232C90.882,0.42,91.302,0,92.114,0
	h17.22c0.812,0,1.232,0.42,1.232,1.232S110.146,2.436,109.334,2.436z"/>
<path fill="#585858" d="M131.818,8.092h-14.504l-1.512,1.456v7.728h14.784v-6.188c0-0.812,0.42-1.204,1.232-1.204
	c0.812,0,1.231,0.392,1.231,1.204v7.392c0,0.812-0.42,1.232-1.231,1.232h-17.22c-0.812,0-1.232-0.42-1.232-1.232V9.016
	c0-0.364,0.14-0.644,0.42-0.868l2.044-2.072c0.42-0.42,0.56-0.42,1.092-0.448h14.896c0.812,0,1.231,0.42,1.231,1.232
	S132.63,8.092,131.818,8.092z"/>
<path fill="#585858" d="M138.258,8.092v10.472c0,0.756-0.392,1.148-1.204,1.148c-0.812,0-1.203-0.42-1.203-1.232V6.832
	c0-0.812,0.42-1.232,1.231-1.232h9.437c0.644,0,0.867,0.252,1.063,0.448l2.185,2.212c1.035,1.036-0.757,2.716-1.792,1.68
	l-1.849-1.848H138.258z"/>
<path fill="#585858" d="M172.586,18.48c0,0.812-0.42,1.232-1.232,1.232h-17.22c-0.812,0-1.231-0.42-1.231-1.232V9.016
	c0-0.364,0.14-0.644,0.42-0.868l2.044-2.072c0.42-0.42,0.56-0.42,1.092-0.448h13.664V1.204c0-0.812,0.42-1.204,1.231-1.204
	c0.812,0,1.232,0.392,1.232,1.204V18.48z M170.122,17.276V8.092H156.85l-1.512,1.456v7.728H170.122z"/>
<path fill="#585858" d="M175.386,1.008C175.47,0.336,175.861,0,176.617,0h17.22c0.812,0,1.232,0.42,1.232,1.232v5.04
	c0,0.42-0.168,0.672-0.42,0.98l-11.9,11.872c-0.308,0.308-0.588,0.56-1.288,0.56h-5.096h-0.056c0-0.028-0.028-0.028-0.057-0.028
	c-0.027,0-0.056,0-0.084-0.028c-0.168-0.028-0.308-0.084-0.392-0.14c-0.028-0.028-0.056-0.028-0.056-0.056s0-0.028-0.028-0.056
	c-0.196-0.168-0.308-0.448-0.308-0.812V1.008z M177.877,2.436V17.22h3.305l11.451-11.396V2.436H177.877z"/>
<path fill="#585858" d="M216.321,8.092h-14.504l-1.512,1.456v7.728h14.784v-6.188c0-0.812,0.42-1.204,1.231-1.204
	c0.812,0,1.232,0.392,1.232,1.204v7.392c0,0.812-0.42,1.232-1.232,1.232h-17.22c-0.812,0-1.231-0.42-1.231-1.232V9.016
	c0-0.364,0.14-0.644,0.42-0.868l2.044-2.072c0.42-0.42,0.56-0.42,1.092-0.448h14.896c0.812,0,1.232,0.42,1.232,1.232
	S217.134,8.092,216.321,8.092z"/>
<path fill="#585858" d="M222.789,8.344l11.452,8.876h3.332V6.832c0-0.812,0.42-1.232,1.231-1.232c0.841,0,1.261,0.42,1.261,1.232
	v11.62c0,0.812-0.393,1.232-1.148,1.232h-4.956c-0.7,0-0.979-0.252-1.288-0.56l-11.899-9.072c-0.28-0.28-0.42-0.56-0.42-0.84V6.468
	c0.027-0.588,0.56-0.868,1.231-0.868c0.812,0,1.204,0.42,1.204,1.232V8.344z"/>
<path fill="#585858" d="M253.925,18.48c0,0.812-0.392,1.232-1.204,1.232c-0.812,0-1.231-0.42-1.231-1.232V2.52h-6.188v16.044
	c0,0.756-0.42,1.148-1.232,1.148c-0.812,0-1.203-0.42-1.203-1.232V1.26c0-0.812,0.42-1.232,1.231-1.232h12.236
	c0.644,0,0.868,0.252,1.063,0.448l4.732,4.704c0.196,0.196,0.392,0.476,0.42,1.064V18.48c0,0.812-0.42,1.232-1.232,1.232
	c-0.812,0-1.204-0.42-1.204-1.232V6.664l-4.172-4.172h-2.016V18.48z"/>
<path fill="#585858" d="M267.785,18.48c0,0.812-0.392,1.232-1.204,1.232c-0.812,0-1.231-0.42-1.231-1.232V6.244
	c0-0.588,0.224-0.868,0.42-1.064l4.731-4.704c0.196-0.196,0.42-0.448,1.064-0.448h12.235c0.812,0,1.232,0.42,1.232,1.232v17.332
	c0,0.756-0.392,1.12-1.204,1.12c-0.56,0-0.924-0.168-1.092-0.532c-0.084-0.084-0.141-0.224-0.141-0.42c0-0.14,0-0.196,0.028-0.196
	V12.32h-14.84V18.48z M282.541,2.492h-10.584l-4.172,4.172v3.22h14.756V2.492z"/>
<path fill="#585858" d="M306.284,6.16h-15.987v9.604l1.483,1.456h14.504c0.812,0,1.232,0.42,1.232,1.232s-0.42,1.232-1.232,1.232
	h-14.867c-0.589,0-0.673-0.028-1.093-0.448l-2.044-2.072c-0.308-0.308-0.447-0.588-0.447-1.008V1.232
	c0-0.812,0.42-1.232,1.231-1.232c0.812,0,1.232,0.42,1.232,1.232v2.464h15.987c0.812,0,1.232,0.42,1.232,1.232
	S307.097,6.16,306.284,6.16z"/>
<path fill="#585858" d="M328.768,19.712h-17.22c-0.812,0-1.231-0.42-1.231-1.232V3.416c0-0.364,0.14-0.644,0.42-0.868l2.044-2.072
	c0.42-0.42,0.56-0.42,1.092-0.448h6.271c0.812,0,1.232,0.42,1.232,1.232s-0.42,1.232-1.232,1.232h-5.88l-1.512,1.456v4.704h16.016
	c0.812,0,1.232,0.42,1.232,1.232s-0.42,1.204-1.232,1.204h-16.016v6.188h16.016c0.812,0,1.232,0.392,1.232,1.204
	S329.58,19.712,328.768,19.712z"/>
<path fill="#585858" d="M118.179,38.318h-3.42v6.861l1.06,1.041h4.361c0.58,0,0.88,0.3,0.88,0.88s-0.3,0.88-0.88,0.88h-4.621
	c-0.42,0-0.48-0.02-0.78-0.32l-1.46-1.48c-0.22-0.22-0.32-0.42-0.32-0.72V34.798c0-0.581,0.3-0.88,0.88-0.88s0.88,0.3,0.88,0.88
	v1.76h3.42c0.58,0,0.88,0.3,0.88,0.88C119.06,38.019,118.759,38.318,118.179,38.318z"/>
<path fill="#585858" d="M124.838,39.719V47.1c0,0.38-0.12,0.64-0.38,0.78c-0.14,0.08-0.32,0.12-0.54,0.12
	c-0.58,0-0.86-0.3-0.86-0.88V34.798c0-0.581,0.3-0.88,0.9-0.88c0.58,0,0.88,0.3,0.88,0.88v3.141h7.841c0.46,0,0.62,0.18,0.76,0.32
	l3.381,3.361c0.14,0.14,0.28,0.34,0.3,0.76v4.741c0,0.58-0.3,0.88-0.88,0.88s-0.86-0.3-0.86-0.88v-4.441l-2.98-2.96H124.838z"/>
<path fill="#585858" d="M153.181,41.499c0,0.3-0.1,0.52-0.3,0.68l-1.46,1.48c-0.3,0.3-0.4,0.3-0.78,0.32h-6.641
	c-0.58,0-0.88-0.3-0.88-0.88s0.3-0.88,0.88-0.88h6.361l1.08-1.04v-1.521h-10.582v5.521l1.08,1.041h10.362c0.58,0,0.88,0.3,0.88,0.88
	s-0.3,0.88-0.88,0.88h-10.643c-0.38-0.02-0.48-0.02-0.78-0.32l-1.46-1.48c-0.2-0.16-0.3-0.38-0.3-0.68v-6.702
	c0-0.58,0.3-0.88,0.88-0.88h12.303c0.58,0,0.88,0.3,0.88,0.88V41.499z"/>
<path fill="#585858" d="M166.059,48c-0.58,0-0.881-0.3-0.881-0.88v-6.761c0-0.26,0.1-0.46,0.301-0.62l1.46-1.48
	c0.3-0.3,0.399-0.32,0.78-0.32h10.643c0.58,0,0.879,0.3,0.879,0.88v8.302c0,0.58-0.299,0.88-0.879,0.88H166.059z M166.918,46.26
	h10.562v-6.562h-9.482l-1.08,1.04V46.26z"/>
<path fill="#585858" d="M181.237,38.798c0-0.58,0.3-0.88,0.88-0.88h12.303c0.58,0,0.881,0.3,0.881,0.88v3.041
	c-0.021,0.38-0.04,0.46-0.301,0.76l-5.041,5.062c-0.18,0.2-0.479,0.32-0.779,0.32h-6.162v3.121c0,0.58-0.3,0.88-0.9,0.88
	c-0.58,0-0.88-0.3-0.88-0.88V38.798z M183.018,46.22h5.861l4.682-4.681v-1.86h-10.543V46.22z"/>
<path fill="#585858" d="M211.36,41.499c0,0.3-0.1,0.52-0.3,0.68l-1.461,1.48c-0.299,0.3-0.399,0.3-0.779,0.32h-6.642
	c-0.58,0-0.88-0.3-0.88-0.88s0.3-0.88,0.88-0.88h6.361l1.08-1.04v-1.521h-10.582v5.521l1.08,1.041h10.362c0.58,0,0.88,0.3,0.88,0.88
	s-0.3,0.88-0.88,0.88h-10.643c-0.38-0.02-0.48-0.02-0.779-0.32l-1.461-1.48c-0.2-0.16-0.301-0.38-0.301-0.68v-6.702
	c0-0.58,0.301-0.88,0.881-0.88h12.303c0.58,0,0.88,0.3,0.88,0.88V41.499z"/>
<path fill="#585858" d="M215.078,39.719v7.461c0,0.54-0.28,0.82-0.86,0.82s-0.86-0.3-0.86-0.88v-8.302c0-0.58,0.301-0.88,0.881-0.88
	h8.741c0.46,0,0.62,0.18,0.761,0.32l3.381,3.361c0.14,0.14,0.279,0.34,0.299,0.76v4.741c0,0.58-0.299,0.88-0.879,0.88
	s-0.861-0.3-0.861-0.88v-4.441l-2.98-2.96H215.078z"/>
<path fill="#585858" d="M251.74,43.839h-11.443c-0.58,0-0.88-0.28-0.88-0.86v-2.601c0-0.22,0.101-0.44,0.32-0.66l1.46-1.48
	c0.301-0.3,0.4-0.32,0.78-0.32h4.481c0.58,0,0.88,0.3,0.88,0.88s-0.3,0.88-0.88,0.88h-4.201l-1.061,1.04v1.36h11.022
	c0.9,0,1.32,0.3,1.28,0.9V47.1c-0.02,0.58-0.32,0.88-0.9,0.88h-12.303c-0.58,0-0.88-0.3-0.88-0.88s0.3-0.86,0.88-0.86h11.443V43.839
	z"/>
<path fill="#585858" d="M256.438,48c-0.58,0-0.881-0.3-0.881-0.88v-6.761c0-0.26,0.101-0.46,0.301-0.62l1.461-1.48
	c0.299-0.3,0.399-0.32,0.779-0.32h10.643c0.58,0,0.88,0.3,0.88,0.88v8.302c0,0.58-0.3,0.88-0.88,0.88H256.438z M257.298,46.26
	h10.562v-6.562h-9.481l-1.08,1.04V46.26z"/>
<path fill="#585858" d="M273.357,43.239l2.98,2.981h4.641l2.98-2.981v-4.441c0-0.58,0.281-0.88,0.861-0.88s0.879,0.3,0.879,0.88
	v4.741c-0.02,0.42-0.159,0.62-0.299,0.76l-3.381,3.361c-0.141,0.14-0.301,0.32-0.761,0.32h-5.201c-0.46-0.02-0.62-0.18-0.76-0.32
	l-3.381-3.361c-0.14-0.14-0.3-0.34-0.3-0.76v-4.741c0-0.58,0.3-0.88,0.88-0.88s0.86,0.3,0.86,0.88V43.239z"/>
<path fill="#585858" d="M289.417,39.699v7.481c0,0.54-0.28,0.82-0.86,0.82s-0.86-0.3-0.86-0.88v-8.322c0-0.58,0.3-0.88,0.88-0.88
	h6.742c0.46,0,0.62,0.18,0.76,0.32l1.561,1.581c0.74,0.74-0.54,1.94-1.28,1.2l-1.32-1.32H289.417z"/>
<path fill="#585858" d="M313.06,39.659h-11.442v5.521l1.08,1.041h10.362c0.58,0,0.88,0.3,0.88,0.88s-0.3,0.88-0.88,0.88h-10.643
	c-0.38-0.02-0.479-0.02-0.78-0.32l-1.46-1.48c-0.2-0.16-0.3-0.38-0.3-0.68v-6.702c0-0.58,0.3-0.88,0.88-0.88h12.303
	c0.58,0,0.88,0.3,0.88,0.88S313.64,39.659,313.06,39.659z"/>
<path fill="#585858" d="M330,41.499c0,0.3-0.1,0.52-0.301,0.68l-1.46,1.48c-0.3,0.3-0.399,0.3-0.78,0.32h-6.641
	c-0.58,0-0.881-0.3-0.881-0.88s0.301-0.88,0.881-0.88h6.361l1.08-1.04v-1.521h-10.582v5.521l1.08,1.041h10.361
	c0.58,0,0.881,0.3,0.881,0.88s-0.301,0.88-0.881,0.88h-10.643c-0.379-0.02-0.479-0.02-0.779-0.32l-1.461-1.48
	c-0.199-0.16-0.3-0.38-0.3-0.68v-6.702c0-0.58,0.3-0.88,0.88-0.88h12.303c0.58,0,0.881,0.3,0.881,0.88V41.499z"/>
<path fill="#585858" d="M236.62,59.658h-11.442v9.521l1.08,1.041h10.362c0.58,0,0.88,0.299,0.88,0.879s-0.3,0.881-0.88,0.881
	h-10.643c-0.38-0.02-0.479-0.02-0.78-0.32l-1.46-1.48c-0.2-0.16-0.3-0.38-0.3-0.68V58.798c0-0.581,0.3-0.88,0.88-0.88h12.303
	c0.58,0,0.88,0.299,0.88,0.88C237.5,59.378,237.2,59.658,236.62,59.658z"/>
<path fill="#585858" d="M252.68,63.699h-10.361l-1.08,1.039v5.521H251.8v-4.42c0-0.58,0.3-0.861,0.88-0.861s0.881,0.281,0.881,0.861
	v5.28c0,0.58-0.301,0.88-0.881,0.88h-12.303c-0.58,0-0.88-0.3-0.88-0.88v-6.761c0-0.261,0.101-0.461,0.3-0.621l1.461-1.48
	c0.3-0.299,0.4-0.299,0.779-0.319h10.643c0.58,0,0.881,0.3,0.881,0.88S253.26,63.699,252.68,63.699z"/>
<path fill="#585858" d="M257.277,63.699v7.48c0,0.541-0.28,0.82-0.86,0.82s-0.86-0.3-0.86-0.88v-8.321
	c0-0.58,0.301-0.881,0.881-0.881h6.741c0.46,0,0.62,0.18,0.76,0.32l1.561,1.58c0.74,0.74-0.54,1.941-1.28,1.201l-1.32-1.32H257.277z
	"/>
<path fill="#585858" d="M281.8,71.12c0,0.58-0.3,0.88-0.88,0.88h-12.303c-0.58,0-0.881-0.3-0.881-0.88v-6.761
	c0-0.261,0.101-0.461,0.301-0.621l1.461-1.48c0.299-0.299,0.399-0.299,0.779-0.319h9.762v-3.161c0-0.58,0.301-0.859,0.881-0.859
	s0.88,0.279,0.88,0.859V71.12z M280.039,70.26v-6.561h-9.481l-1.08,1.039v5.521H280.039z"/>
<path fill="#585858" d="M283.797,58.638c0.06-0.479,0.34-0.72,0.88-0.72h12.303c0.58,0,0.88,0.299,0.88,0.88v3.601
	c0,0.301-0.119,0.48-0.3,0.7l-8.502,8.481c-0.22,0.221-0.42,0.4-0.92,0.4h-3.642h-0.039c0-0.02-0.021-0.02-0.041-0.02
	c-0.02,0-0.039,0-0.059-0.021c-0.121-0.021-0.221-0.06-0.281-0.101c-0.02-0.02-0.039-0.02-0.039-0.039c0-0.021,0-0.021-0.021-0.041
	c-0.14-0.119-0.22-0.319-0.22-0.58V58.638z M285.577,59.658v10.562h2.36l8.182-8.143v-2.42H285.577z"/>
<path fill="#585858" d="M301.598,71.12c0,0.58-0.281,0.88-0.861,0.88s-0.88-0.3-0.88-0.88v-8.741c0-0.42,0.16-0.621,0.3-0.761
	l3.381-3.36c0.141-0.141,0.301-0.32,0.761-0.32h8.741c0.58,0,0.881,0.3,0.881,0.881V71.2c0,0.54-0.28,0.8-0.86,0.8
	c-0.4,0-0.66-0.119-0.78-0.379c-0.061-0.061-0.1-0.16-0.1-0.301c0-0.1,0-0.141,0.02-0.141v-4.461h-10.602V71.12z M312.139,59.697
	h-7.561l-2.98,2.981v2.3h10.541V59.697z"/>
<path fill="#585858" d="M317.656,62.078l8.182,8.143h2.381V58.798c0-0.581,0.301-0.88,0.881-0.88c0.6,0,0.899,0.299,0.899,0.88V71.1
	c0,0.58-0.28,0.881-0.819,0.881h-3.541c-0.5,0-0.701-0.18-0.92-0.4l-8.502-8.481c-0.201-0.2-0.301-0.399-0.301-0.601
	c0-0.18,0-1.5,0.02-3.961c0-0.42,0.381-0.619,0.861-0.619c0.58,0,0.859,0.299,0.859,0.88V62.078z"/>
<path fill="#585858" d="M214.179,86.799c0-0.58,0.28-0.881,0.86-0.881s0.88,0.301,0.88,0.881v7.4h4.44v-7.441
	c0-0.561,0.281-0.84,0.861-0.84s0.859,0.301,0.859,0.881V95.1c0,0.58-0.3,0.881-0.88,0.881h-8.742c-0.46,0-0.62-0.18-0.76-0.32
	l-3.381-3.361c-0.14-0.141-0.28-0.34-0.3-0.76v-4.74c0-0.58,0.3-0.881,0.88-0.881s0.86,0.301,0.86,0.881v4.439l2.98,2.98h1.44
	V86.799z"/>
<path fill="#585858" d="M238.141,89.498c0,0.301-0.1,0.521-0.301,0.682l-1.46,1.479c-0.3,0.301-0.399,0.301-0.78,0.32h-6.641
	c-0.58,0-0.881-0.299-0.881-0.879s0.301-0.881,0.881-0.881h6.361l1.08-1.041v-1.52h-10.582v5.521l1.08,1.039h10.361
	c0.58,0,0.881,0.301,0.881,0.881s-0.301,0.881-0.881,0.881h-10.643c-0.379-0.02-0.479-0.02-0.779-0.32l-1.461-1.48
	c-0.199-0.16-0.3-0.381-0.3-0.68v-6.701c0-0.58,0.3-0.881,0.88-0.881h12.303c0.58,0,0.881,0.301,0.881,0.881V89.498z"/>
<path fill="#585858" d="M240.137,82.777c0-0.58,0.301-0.861,0.881-0.861s0.88,0.281,0.88,0.861v3.16h9.762
	c0.38,0.02,0.48,0.02,0.78,0.32l1.461,1.48c0.199,0.16,0.299,0.359,0.299,0.619v6.762c0,0.58-0.299,0.881-0.879,0.881h-12.303
	c-0.58,0-0.881-0.301-0.881-0.881V82.777z M252.459,94.26v-5.521l-1.08-1.041h-9.481v6.562H252.459z"/>
<path fill="#585858" d="M279.38,87.658h-11.442v5.521l1.08,1.039h10.362c0.58,0,0.88,0.301,0.88,0.881s-0.3,0.881-0.88,0.881
	h-10.643c-0.38-0.02-0.479-0.02-0.78-0.32l-1.46-1.48c-0.2-0.16-0.3-0.381-0.3-0.68v-6.701c0-0.58,0.3-0.881,0.88-0.881h12.303
	c0.58,0,0.88,0.301,0.88,0.881S279.96,87.658,279.38,87.658z"/>
<path fill="#585858" d="M282.257,82.797c0-0.58,0.3-0.881,0.9-0.881c0.58,0,0.88,0.301,0.88,0.881V95.1c0,0.58-0.3,0.881-0.9,0.881
	c-0.58,0-0.88-0.301-0.88-0.881V82.797z"/>
<path fill="#585858" d="M286.037,82.797c0-0.58,0.3-0.881,0.9-0.881c0.58,0,0.88,0.301,0.88,0.881v0.301c0,0.58-0.3,0.879-0.9,0.879
	c-0.58,0-0.88-0.299-0.88-0.879V82.797z M286.037,86.799c0-0.58,0.3-0.881,0.9-0.881c0.58,0,0.88,0.301,0.88,0.881V95.1
	c0,0.58-0.3,0.881-0.9,0.881c-0.58,0-0.88-0.301-0.88-0.881V86.799z"/>
<path fill="#585858" d="M303.879,89.498c0,0.301-0.1,0.521-0.299,0.682l-1.461,1.479c-0.3,0.301-0.4,0.301-0.78,0.32h-6.642
	c-0.58,0-0.88-0.299-0.88-0.879s0.3-0.881,0.88-0.881h6.361l1.08-1.041v-1.52h-10.582v5.521l1.08,1.039H303
	c0.58,0,0.879,0.301,0.879,0.881S303.58,95.98,303,95.98h-10.643c-0.381-0.02-0.48-0.02-0.78-0.32l-1.46-1.48
	c-0.201-0.16-0.301-0.381-0.301-0.68v-6.701c0-0.58,0.301-0.881,0.881-0.881H303c0.58,0,0.879,0.301,0.879,0.881V89.498z"/>
<path fill="#585858" d="M307.598,87.719v7.461c0,0.541-0.281,0.82-0.861,0.82s-0.859-0.301-0.859-0.881v-8.301
	c0-0.58,0.3-0.881,0.88-0.881h8.741c0.461,0,0.621,0.18,0.761,0.32l3.381,3.361c0.14,0.139,0.28,0.34,0.3,0.76v4.74
	c0,0.58-0.3,0.881-0.88,0.881s-0.86-0.301-0.86-0.881V90.68l-2.98-2.961H307.598z"/>
<path fill="#585858" d="M327.117,86.318h-3.42v6.861l1.06,1.039h4.36c0.58,0,0.881,0.301,0.881,0.881s-0.301,0.881-0.881,0.881
	h-4.621c-0.42,0-0.479-0.02-0.779-0.32l-1.461-1.48c-0.22-0.221-0.32-0.42-0.32-0.721V82.797c0-0.58,0.301-0.881,0.881-0.881
	s0.881,0.301,0.881,0.881v1.76h3.42c0.58,0,0.881,0.301,0.881,0.881S327.697,86.318,327.117,86.318z"/>
<rect y="9" fill="#FFFFFF" width="9" height="78"/>
<path fill="#585858" d="M77,0H3C1.343,0,0,1.343,0,3v6h9v6H0v6h9v6H0v6h9v6H0v6h9v6H0v6h9v6H0v6h9v6H0v6h9v6H0v6
	c0,1.656,1.343,3,3,3h74c1.657,0,3-1.344,3-3V3C80,1.343,78.657,0,77,0z"/>
<path fill="#FFFFFF" d="M69.056,69.368c-0.272-1.485-0.499-3.147-1.909-4.133c-3.218-2.248-7.34-4.148-10.975-5.804
	c-1.759-0.79-1.746-0.93-2.08-2.457c-0.229-0.987-1.588-0.507-1.389-2.162c0.36-2.937,3.067-4.608,4.026-7.17
	c0.419-1.11,0.829-2.459,0.58-3.636c-0.079-0.381-0.279-0.786-0.704-0.948c-0.851-0.316-0.265-1.531-0.173-2.32
	c0.208-1.621,0.837-3.616,0.703-5.589h-0.05c-0.335-2.761-2.633-4.85-4.18-7.264c-0.919-1.46-1.223-1.484-3-2.306
	c0.27-0.284,0.489-0.526,0.781-0.806c-1.75-0.552-4.822-1.644-6.668-1.147c-1.394,0.351-2.396,1.385-3.787,1.775
	c-1.141,0.349-2.505,0.75-3.515,1.371c-0.497,0.306-0.016,0.468,0.034,0.871c0.086,0.694-0.976,1.5-1.394,2.018
	c-0.978,1.243-2.165,2.85-2.703,4.307c-0.144,0.386-0.208,0.785-0.239,1.18h-0.049c-0.135,1.973,0.495,3.968,0.704,5.589
	c0.089,0.79,0.675,1.971-0.175,2.287c-0.424,0.163-0.625,0.583-0.704,0.964c-0.25,1.178,0.159,2.533,0.579,3.643
	c0.96,2.562,3.667,4.233,4.027,7.172c0.2,1.654-1.158,1.172-1.388,2.158c-0.336,1.526-0.321,1.654-2.08,2.444
	c-3.636,1.657-7.758,3.533-10.977,5.781c-1.409,0.984-1.638,2.695-1.907,4.182c-0.324,1.855-0.49,2.87-0.945,5.632h25.25H70
	C69.545,72.238,69.38,71.224,69.056,69.368z"/>
</svg>
