<?xml version="1.0" encoding="utf-8"?>
<!-- Generator: Adobe Illustrator 15.1.0, SVG Export Plug-In  -->
<!DOCTYPE svg PUBLIC "-//W3C//DTD SVG 1.1//EN" "http://www.w3.org/Graphics/SVG/1.1/DTD/svg11.dtd" [
	<!ENTITY ns_flows "http://ns.adobe.com/Flows/1.0/">
]>
<svg version="1.1"
	 xmlns="http://www.w3.org/2000/svg" xmlns:xlink="http://www.w3.org/1999/xlink" xmlns:a="http://ns.adobe.com/AdobeSVGViewerExtensions/3.0/"
	 x="0px" y="0px" width="330px" height="96px" viewBox="0 0 330 96" overflow="visible" enable-background="new 0 0 330 96"
	 xml:space="preserve">
<defs>
</defs>
<path fill="#585858" d="M166.034,2.436h-16.016v13.328l1.512,1.456h14.503c0.812,0,1.232,0.42,1.232,1.232s-0.42,1.232-1.232,1.232
	h-14.896c-0.532-0.028-0.672-0.028-1.092-0.448l-2.044-2.072c-0.28-0.224-0.42-0.532-0.42-0.952V1.232
	c0-0.812,0.42-1.232,1.232-1.232h17.22c0.812,0,1.232,0.42,1.232,1.232S166.847,2.436,166.034,2.436z"/>
<path fill="#585858" d="M188.519,8.092h-14.504l-1.512,1.456v7.728h14.783v-6.188c0-0.812,0.42-1.204,1.232-1.204
	c0.812,0,1.231,0.392,1.231,1.204v7.392c0,0.812-0.42,1.232-1.231,1.232h-17.221c-0.812,0-1.231-0.42-1.231-1.232V9.016
	c0-0.364,0.14-0.644,0.42-0.868l2.044-2.072c0.42-0.42,0.561-0.42,1.092-0.448h14.896c0.812,0,1.231,0.42,1.231,1.232
	S189.33,8.092,188.519,8.092z"/>
<path fill="#585858" d="M192.551,1.232c0-0.812,0.42-1.232,1.26-1.232c0.812,0,1.231,0.42,1.231,1.232v17.22
	c0,0.812-0.42,1.232-1.26,1.232c-0.812,0-1.231-0.42-1.231-1.232V1.232z"/>
<path fill="#585858" d="M197.843,1.008C197.927,0.336,198.318,0,199.074,0h17.22c0.812,0,1.232,0.42,1.232,1.232v5.04
	c0,0.42-0.168,0.672-0.42,0.98l-11.9,11.872c-0.308,0.308-0.588,0.56-1.288,0.56h-5.096h-0.056c0-0.028-0.028-0.028-0.057-0.028
	c-0.027,0-0.056,0-0.084-0.028c-0.168-0.028-0.308-0.084-0.392-0.14c-0.028-0.028-0.056-0.028-0.056-0.056s0-0.028-0.028-0.056
	c-0.196-0.168-0.308-0.448-0.308-0.812V1.008z M200.334,2.436V17.22h3.305L215.09,5.824V2.436H200.334z"/>
<path fill="#585858" d="M238.777,8.092h-14.504l-1.512,1.456v7.728h14.784v-6.188c0-0.812,0.42-1.204,1.231-1.204
	c0.812,0,1.232,0.392,1.232,1.204v7.392c0,0.812-0.42,1.232-1.232,1.232h-17.22c-0.812,0-1.231-0.42-1.231-1.232V9.016
	c0-0.364,0.14-0.644,0.42-0.868l2.044-2.072c0.42-0.42,0.56-0.42,1.092-0.448h14.896c0.812,0,1.232,0.42,1.232,1.232
	S239.59,8.092,238.777,8.092z"/>
<path fill="#585858" d="M245.245,8.344l11.452,8.876h3.332V6.832c0-0.812,0.42-1.232,1.231-1.232c0.841,0,1.261,0.42,1.261,1.232
	v11.62c0,0.812-0.393,1.232-1.148,1.232h-4.956c-0.7,0-0.979-0.252-1.288-0.56l-11.899-9.072c-0.28-0.28-0.42-0.56-0.42-0.84V6.468
	c0.027-0.588,0.56-0.868,1.231-0.868c0.812,0,1.204,0.42,1.204,1.232V8.344z"/>
<path fill="#585858" d="M283.772,17.276c0.812,0,1.232,0.392,1.232,1.204s-0.42,1.232-1.232,1.232h-17.248
	c-0.783,0-1.176-0.42-1.176-1.232v-5.292c0-0.252,0.084-0.476,0.393-0.728l14.447-9.968h-13.636c-0.812,0-1.231-0.392-1.231-1.204
	s0.42-1.232,1.231-1.288h17.22c0.336,0,0.616,0.056,0.841,0.196c0.279,0.224,0.42,0.588,0.42,1.064h-0.028
	c0,0.784-0.364,0.896-1.008,1.316l-16.24,11.312v3.388H283.772z"/>
<path fill="#585858" d="M290.269,18.48c0,0.812-0.392,1.232-1.204,1.232c-0.812,0-1.231-0.42-1.231-1.232V6.244
	c0-0.588,0.224-0.868,0.42-1.064l4.731-4.704c0.196-0.196,0.42-0.448,1.064-0.448h12.235c0.812,0,1.232,0.42,1.232,1.232v17.332
	c0,0.756-0.392,1.12-1.204,1.12c-0.56,0-0.924-0.168-1.092-0.532c-0.084-0.084-0.141-0.224-0.141-0.42c0-0.14,0-0.196,0.028-0.196
	V12.32h-14.84V18.48z M305.024,2.492H294.44l-4.172,4.172v3.22h14.756V2.492z"/>
<path fill="#585858" d="M310.316,1.232c0-0.812,0.42-1.232,1.231-1.232h17.22C329.58,0,330,0.42,330,1.232V6.16
	c-0.028,0.532-0.056,0.644-0.42,1.064l-7.056,7.084l-0.196,0.168l-0.896,0.28h-8.624v3.696c0,0.812-0.42,1.232-1.26,1.232
	c-0.812,0-1.231-0.42-1.231-1.232V1.232z M312.808,12.292h8.204l6.552-6.552V2.464h-14.756V12.292z"/>
<path fill="#585858" d="M118.179,38.318h-3.42v6.861l1.06,1.041h4.361c0.58,0,0.88,0.3,0.88,0.88s-0.3,0.88-0.88,0.88h-4.621
	c-0.42,0-0.48-0.02-0.78-0.32l-1.46-1.48c-0.22-0.22-0.32-0.42-0.32-0.72V34.798c0-0.581,0.3-0.88,0.88-0.88s0.88,0.3,0.88,0.88
	v1.76h3.42c0.58,0,0.88,0.3,0.88,0.88C119.06,38.019,118.759,38.318,118.179,38.318z"/>
<path fill="#585858" d="M124.838,39.719V47.1c0,0.38-0.12,0.64-0.38,0.78c-0.14,0.08-0.32,0.12-0.54,0.12
	c-0.58,0-0.86-0.3-0.86-0.88V34.798c0-0.581,0.3-0.88,0.9-0.88c0.58,0,0.88,0.3,0.88,0.88v3.141h7.841c0.46,0,0.62,0.18,0.76,0.32
	l3.381,3.361c0.14,0.14,0.28,0.34,0.3,0.76v4.741c0,0.58-0.3,0.88-0.88,0.88s-0.86-0.3-0.86-0.88v-4.441l-2.98-2.96H124.838z"/>
<path fill="#585858" d="M153.181,41.499c0,0.3-0.1,0.52-0.3,0.68l-1.46,1.48c-0.3,0.3-0.4,0.3-0.78,0.32h-6.641
	c-0.58,0-0.88-0.3-0.88-0.88s0.3-0.88,0.88-0.88h6.361l1.08-1.04v-1.521h-10.582v5.521l1.08,1.041h10.362c0.58,0,0.88,0.3,0.88,0.88
	s-0.3,0.88-0.88,0.88h-10.643c-0.38-0.02-0.48-0.02-0.78-0.32l-1.46-1.48c-0.2-0.16-0.3-0.38-0.3-0.68v-6.702
	c0-0.58,0.3-0.88,0.88-0.88h12.303c0.58,0,0.88,0.3,0.88,0.88V41.499z"/>
<path fill="#585858" d="M166.059,48c-0.58,0-0.881-0.3-0.881-0.88v-6.761c0-0.26,0.1-0.46,0.301-0.62l1.46-1.48
	c0.3-0.3,0.399-0.32,0.78-0.32h10.643c0.58,0,0.879,0.3,0.879,0.88v8.302c0,0.58-0.299,0.88-0.879,0.88H166.059z M166.918,46.26
	h10.562v-6.562h-9.482l-1.08,1.04V46.26z"/>
<path fill="#585858" d="M181.238,38.798c0-0.58,0.3-0.88,0.88-0.88h12.303c0.58,0,0.88,0.3,0.88,0.88v3.041
	c-0.02,0.38-0.039,0.46-0.3,0.76l-5.041,5.062c-0.181,0.2-0.479,0.32-0.78,0.32h-6.161v3.121c0,0.58-0.3,0.88-0.9,0.88
	c-0.58,0-0.88-0.3-0.88-0.88V38.798z M183.019,46.22h5.861l4.681-4.681v-1.86h-10.542V46.22z"/>
<path fill="#585858" d="M211.361,41.499c0,0.3-0.1,0.52-0.301,0.68l-1.46,1.48c-0.3,0.3-0.399,0.3-0.78,0.32h-6.641
	c-0.58,0-0.881-0.3-0.881-0.88s0.301-0.88,0.881-0.88h6.361l1.08-1.04v-1.521h-10.582v5.521l1.08,1.041h10.361
	c0.58,0,0.881,0.3,0.881,0.88s-0.301,0.88-0.881,0.88h-10.643c-0.379-0.02-0.479-0.02-0.779-0.32l-1.461-1.48
	c-0.199-0.16-0.3-0.38-0.3-0.68v-6.702c0-0.58,0.3-0.88,0.88-0.88h12.303c0.58,0,0.881,0.3,0.881,0.88V41.499z"/>
<path fill="#585858" d="M215.078,39.719v7.461c0,0.54-0.279,0.82-0.859,0.82s-0.861-0.3-0.861-0.88v-8.302
	c0-0.58,0.301-0.88,0.881-0.88h8.742c0.46,0,0.619,0.18,0.76,0.32l3.381,3.361c0.141,0.14,0.28,0.34,0.3,0.76v4.741
	c0,0.58-0.3,0.88-0.88,0.88s-0.86-0.3-0.86-0.88v-4.441l-2.98-2.96H215.078z"/>
<path fill="#585858" d="M251.74,43.839h-11.441c-0.58,0-0.881-0.28-0.881-0.86v-2.601c0-0.22,0.1-0.44,0.32-0.66l1.461-1.48
	c0.299-0.3,0.399-0.32,0.779-0.32h4.48c0.581,0,0.881,0.3,0.881,0.88s-0.3,0.88-0.881,0.88h-4.2l-1.06,1.04v1.36h11.021
	c0.9,0,1.32,0.3,1.28,0.9V47.1c-0.021,0.58-0.319,0.88-0.899,0.88h-12.303c-0.58,0-0.881-0.3-0.881-0.88s0.301-0.86,0.881-0.86
	h11.441V43.839z"/>
<path fill="#585858" d="M256.438,48c-0.58,0-0.88-0.3-0.88-0.88v-6.761c0-0.26,0.101-0.46,0.3-0.62l1.461-1.48
	c0.3-0.3,0.4-0.32,0.779-0.32h10.643c0.58,0,0.881,0.3,0.881,0.88v8.302c0,0.58-0.301,0.88-0.881,0.88H256.438z M257.299,46.26
	h10.562v-6.562h-9.481l-1.08,1.04V46.26z"/>
<path fill="#585858" d="M273.358,43.239l2.98,2.981h4.642l2.98-2.981v-4.441c0-0.58,0.279-0.88,0.859-0.88s0.881,0.3,0.881,0.88
	v4.741c-0.021,0.42-0.16,0.62-0.301,0.76l-3.381,3.361c-0.14,0.14-0.299,0.32-0.76,0.32h-5.201c-0.46-0.02-0.62-0.18-0.76-0.32
	l-3.381-3.361c-0.141-0.14-0.301-0.34-0.301-0.76v-4.741c0-0.58,0.301-0.88,0.881-0.88s0.86,0.3,0.86,0.88V43.239z"/>
<path fill="#585858" d="M289.418,39.699v7.481c0,0.54-0.28,0.82-0.86,0.82s-0.86-0.3-0.86-0.88v-8.322c0-0.58,0.301-0.88,0.881-0.88
	h6.741c0.46,0,0.62,0.18,0.76,0.32l1.561,1.581c0.74,0.74-0.54,1.94-1.28,1.2l-1.32-1.32H289.418z"/>
<path fill="#585858" d="M313.061,39.659h-11.443v5.521l1.08,1.041h10.363c0.58,0,0.879,0.3,0.879,0.88s-0.299,0.88-0.879,0.88
	h-10.643c-0.381-0.02-0.48-0.02-0.78-0.32l-1.46-1.48c-0.201-0.16-0.301-0.38-0.301-0.68v-6.702c0-0.58,0.301-0.88,0.881-0.88
	h12.303c0.58,0,0.879,0.3,0.879,0.88S313.641,39.659,313.061,39.659z"/>
<path fill="#585858" d="M330,41.499c0,0.3-0.1,0.52-0.3,0.68l-1.46,1.48c-0.301,0.3-0.4,0.3-0.781,0.32h-6.641
	c-0.58,0-0.881-0.3-0.881-0.88s0.301-0.88,0.881-0.88h6.361l1.08-1.04v-1.521h-10.582v5.521l1.08,1.041h10.362
	c0.58,0,0.88,0.3,0.88,0.88s-0.3,0.88-0.88,0.88h-10.643c-0.38-0.02-0.479-0.02-0.78-0.32l-1.46-1.48c-0.2-0.16-0.3-0.38-0.3-0.68
	v-6.702c0-0.58,0.3-0.88,0.88-0.88h12.303c0.58,0,0.88,0.3,0.88,0.88V41.499z"/>
<path fill="#585858" d="M261.08,59.658h-11.442v9.521l1.08,1.041h10.362c0.58,0,0.88,0.299,0.88,0.879s-0.3,0.881-0.88,0.881
	h-10.643c-0.38-0.02-0.48-0.02-0.779-0.32l-1.461-1.48c-0.2-0.16-0.301-0.38-0.301-0.68V58.798c0-0.581,0.301-0.88,0.881-0.88
	h12.303c0.58,0,0.88,0.299,0.88,0.88C261.96,59.378,261.66,59.658,261.08,59.658z"/>
<path fill="#585858" d="M277.141,63.699h-10.363l-1.08,1.039v5.521h10.562v-4.42c0-0.58,0.301-0.861,0.881-0.861
	s0.879,0.281,0.879,0.861v5.28c0,0.58-0.299,0.88-0.879,0.88h-12.303c-0.58,0-0.881-0.3-0.881-0.88v-6.761
	c0-0.261,0.1-0.461,0.301-0.621l1.46-1.48c0.3-0.299,0.399-0.299,0.78-0.319h10.643c0.58,0,0.879,0.3,0.879,0.88
	S277.721,63.699,277.141,63.699z"/>
<path fill="#585858" d="M280.018,58.798c0-0.581,0.3-0.88,0.9-0.88c0.58,0,0.88,0.299,0.88,0.88V71.1c0,0.58-0.3,0.881-0.9,0.881
	c-0.58,0-0.88-0.301-0.88-0.881V58.798z"/>
<path fill="#585858" d="M283.797,58.638c0.061-0.479,0.34-0.72,0.881-0.72h12.303c0.58,0,0.879,0.299,0.879,0.88v3.601
	c0,0.301-0.119,0.48-0.299,0.7l-8.502,8.481c-0.221,0.221-0.42,0.4-0.92,0.4h-3.642h-0.04c0-0.02-0.02-0.02-0.04-0.02
	c-0.02,0-0.04,0-0.06-0.021c-0.12-0.021-0.221-0.06-0.28-0.101c-0.021-0.02-0.04-0.02-0.04-0.039c0-0.021,0-0.021-0.02-0.041
	c-0.141-0.119-0.221-0.319-0.221-0.58V58.638z M285.578,59.658v10.562h2.359l8.182-8.143v-2.42H285.578z"/>
<path fill="#585858" d="M301.598,71.12c0,0.58-0.28,0.88-0.86,0.88s-0.88-0.3-0.88-0.88v-8.741c0-0.42,0.16-0.621,0.3-0.761
	l3.381-3.36c0.14-0.141,0.3-0.32,0.76-0.32h8.742c0.58,0,0.88,0.3,0.88,0.881V71.2c0,0.54-0.279,0.8-0.859,0.8
	c-0.4,0-0.66-0.119-0.781-0.379c-0.06-0.061-0.1-0.16-0.1-0.301c0-0.1,0-0.141,0.02-0.141v-4.461h-10.602V71.12z M312.14,59.697
	h-7.562l-2.98,2.981v2.3h10.542V59.697z"/>
<path fill="#585858" d="M317.658,62.078l8.182,8.143h2.38V58.798c0-0.581,0.3-0.88,0.88-0.88c0.601,0,0.9,0.299,0.9,0.88V71.1
	c0,0.58-0.279,0.881-0.82,0.881h-3.541c-0.5,0-0.699-0.18-0.92-0.4l-8.502-8.481c-0.199-0.2-0.3-0.399-0.3-0.601
	c0-0.18,0-1.5,0.021-3.961c0-0.42,0.38-0.619,0.859-0.619c0.58,0,0.861,0.299,0.861,0.88V62.078z"/>
<path fill="#585858" d="M214.179,86.799c0-0.58,0.28-0.881,0.86-0.881s0.88,0.301,0.88,0.881v7.4h4.44v-7.441
	c0-0.561,0.281-0.84,0.861-0.84s0.859,0.301,0.859,0.881V95.1c0,0.58-0.3,0.881-0.88,0.881h-8.742c-0.46,0-0.62-0.18-0.76-0.32
	l-3.381-3.361c-0.14-0.141-0.28-0.34-0.3-0.76v-4.74c0-0.58,0.3-0.881,0.88-0.881s0.86,0.301,0.86,0.881v4.439l2.98,2.98h1.44
	V86.799z"/>
<path fill="#585858" d="M238.141,89.498c0,0.301-0.1,0.521-0.301,0.682l-1.46,1.479c-0.3,0.301-0.399,0.301-0.78,0.32h-6.641
	c-0.58,0-0.881-0.299-0.881-0.879s0.301-0.881,0.881-0.881h6.361l1.08-1.041v-1.52h-10.582v5.521l1.08,1.039h10.361
	c0.58,0,0.881,0.301,0.881,0.881s-0.301,0.881-0.881,0.881h-10.643c-0.379-0.02-0.479-0.02-0.779-0.32l-1.461-1.48
	c-0.199-0.16-0.3-0.381-0.3-0.68v-6.701c0-0.58,0.3-0.881,0.88-0.881h12.303c0.58,0,0.881,0.301,0.881,0.881V89.498z"/>
<path fill="#585858" d="M240.137,82.777c0-0.58,0.301-0.861,0.881-0.861s0.881,0.281,0.881,0.861v3.16h9.762
	c0.38,0.02,0.48,0.02,0.779,0.32l1.461,1.48c0.2,0.16,0.3,0.359,0.3,0.619v6.762c0,0.58-0.3,0.881-0.88,0.881h-12.303
	c-0.58,0-0.881-0.301-0.881-0.881V82.777z M252.46,94.26v-5.521l-1.08-1.041h-9.481v6.562H252.46z"/>
<path fill="#585858" d="M279.381,87.658h-11.443v5.521l1.08,1.039h10.363c0.58,0,0.879,0.301,0.879,0.881s-0.299,0.881-0.879,0.881
	h-10.643c-0.381-0.02-0.48-0.02-0.78-0.32l-1.46-1.48c-0.201-0.16-0.301-0.381-0.301-0.68v-6.701c0-0.58,0.301-0.881,0.881-0.881
	h12.303c0.58,0,0.879,0.301,0.879,0.881S279.961,87.658,279.381,87.658z"/>
<path fill="#585858" d="M282.258,82.797c0-0.58,0.3-0.881,0.9-0.881c0.58,0,0.88,0.301,0.88,0.881V95.1c0,0.58-0.3,0.881-0.9,0.881
	c-0.58,0-0.88-0.301-0.88-0.881V82.797z"/>
<path fill="#585858" d="M286.037,82.797c0-0.58,0.301-0.881,0.9-0.881c0.58,0,0.881,0.301,0.881,0.881v0.301
	c0,0.58-0.301,0.879-0.9,0.879c-0.58,0-0.881-0.299-0.881-0.879V82.797z M286.037,86.799c0-0.58,0.301-0.881,0.9-0.881
	c0.58,0,0.881,0.301,0.881,0.881V95.1c0,0.58-0.301,0.881-0.9,0.881c-0.58,0-0.881-0.301-0.881-0.881V86.799z"/>
<path fill="#585858" d="M303.88,89.498c0,0.301-0.1,0.521-0.3,0.682l-1.461,1.479c-0.299,0.301-0.399,0.301-0.779,0.32h-6.642
	c-0.58,0-0.88-0.299-0.88-0.879s0.3-0.881,0.88-0.881h6.361l1.08-1.041v-1.52h-10.582v5.521l1.08,1.039H303
	c0.58,0,0.88,0.301,0.88,0.881s-0.3,0.881-0.88,0.881h-10.643c-0.38-0.02-0.48-0.02-0.779-0.32l-1.461-1.48
	c-0.2-0.16-0.301-0.381-0.301-0.68v-6.701c0-0.58,0.301-0.881,0.881-0.881H303c0.58,0,0.88,0.301,0.88,0.881V89.498z"/>
<path fill="#585858" d="M307.598,87.719v7.461c0,0.541-0.28,0.82-0.86,0.82s-0.86-0.301-0.86-0.881v-8.301
	c0-0.58,0.301-0.881,0.881-0.881h8.741c0.46,0,0.62,0.18,0.761,0.32l3.381,3.361c0.14,0.139,0.279,0.34,0.299,0.76v4.74
	c0,0.58-0.299,0.881-0.879,0.881s-0.861-0.301-0.861-0.881V90.68l-2.98-2.961H307.598z"/>
<path fill="#585858" d="M327.118,86.318h-3.421v6.861l1.061,1.039h4.361c0.58,0,0.88,0.301,0.88,0.881s-0.3,0.881-0.88,0.881h-4.621
	c-0.42,0-0.48-0.02-0.78-0.32l-1.46-1.48c-0.221-0.221-0.32-0.42-0.32-0.721V82.797c0-0.58,0.3-0.881,0.88-0.881
	s0.88,0.301,0.88,0.881v1.76h3.421c0.58,0,0.88,0.301,0.88,0.881S327.698,86.318,327.118,86.318z"/>
<path fill="#585858" d="M16.005,0c-2.209,0-4.002,1.394-4.002,3.103v12.414c0,1.708,1.793,3.098,4.002,3.098
	c2.203,0,3.996-1.39,3.996-3.098V3.103C20.001,1.394,18.208,0,16.005,0z"/>
<path fill="#585858" d="M63.997,0c-2.203,0-4,1.394-4,3.103v12.414c0,1.708,1.797,3.098,4,3.098c2.219,0,4-1.39,4-3.098V3.103
	C67.997,1.394,66.216,0,63.997,0z"/>
<path fill="#585858" d="M76.009,10.859h-4.012v4.658c0,3.413-3.596,6.203-8,6.203c-4.395,0-8-2.795-8-6.203v-4.658H24.001v4.658
	c0,3.413-3.596,6.203-7.996,6.203c-4.402,0-8.002-2.795-8.002-6.203v-4.658H4c-2.202,0-4,1.392-4,3.105v9.307v4.655h5.997h67.996H80
	v-4.655v-9.307C80,12.254,78.215,10.859,76.009,10.859z"/>
<path fill="#585858" d="M0,31.016v59.099c0,3.259,1.798,5.9,4,5.9h72.009c2.206,0,3.991-2.642,3.991-5.9V31.016H0z M70.5,86.017h-60
	v-45h60V86.017L70.5,86.017z"/>
<rect x="10.5" y="41.017" fill="#FFFFFF" width="60" height="45"/>
<path fill="#585858" d="M32.171,50.107h-0.042c0.546,0.504,0.84,1.008,0.84,1.47v24.322c0,1.177-1.218,2.101-2.73,2.101
	s-2.73-0.924-2.73-2.101V53.678H27.13c-1.47,0-2.73-0.924-2.73-2.101c0-1.134,1.26-2.101,2.73-2.101h3.108
	C31.079,49.477,31.793,49.729,32.171,50.107z"/>
<path fill="#585858" d="M54.809,50.107h-0.042c0.546,0.504,0.84,1.008,0.84,1.47v24.322c0,1.177-1.218,2.101-2.73,2.101
	s-2.73-0.924-2.73-2.101V53.678h-0.378c-1.47,0-2.73-0.924-2.73-2.101c0-1.134,1.26-2.101,2.73-2.101h3.108
	C53.716,49.477,54.43,49.729,54.809,50.107z"/>
</svg>
