<?xml version="1.0" encoding="utf-8"?>
<!-- Generator: Adobe Illustrator 15.1.0, SVG Export Plug-In . SVG Version: 6.00 Build 0)  -->
<!DOCTYPE svg PUBLIC "-//W3C//DTD SVG 1.1//EN" "http://www.w3.org/Graphics/SVG/1.1/DTD/svg11.dtd">
<svg version="1.1" id="Layer_1" xmlns="http://www.w3.org/2000/svg" xmlns:xlink="http://www.w3.org/1999/xlink" x="0px" y="0px"
	 width="12px" height="14px" viewBox="0 0 12 14" enable-background="new 0 0 12 14" xml:space="preserve">
<rect x="4.959" y="0.627" fill="#FFFFFF" width="1.705" height="1.496"/>
<g>
	<path d="M11.186,1.991H9.889c0,0.001,0,0.002,0,0.003v0.667c0,0.736-0.58,1.334-1.295,1.334H3.408
		c-0.715,0-1.296-0.598-1.296-1.334V1.994c0-0.001,0-0.002,0-0.003H0.815c-0.359,0-0.651,0.3-0.651,0.67v10.677
		c0,0.369,0.292,0.67,0.651,0.67h10.371c0.357,0,0.649-0.301,0.649-0.67V2.661C11.836,2.291,11.544,1.991,11.186,1.991z"/>
	<path d="M8.594,1.326h-0.65c-0.355,0-0.646-0.3-0.646-0.667S7.005-0.008,6.648-0.008H5.352c-0.356,0-0.648,0.301-0.648,0.667
		S4.412,1.326,4.056,1.326H3.408c-0.356,0-0.648,0.301-0.648,0.668v0.667c0,0.367,0.292,0.667,0.648,0.667h5.186
		c0.355,0,0.646-0.301,0.646-0.667V1.994C9.24,1.627,8.949,1.326,8.594,1.326z M6,1.994c-0.358,0-0.648-0.298-0.648-0.668
		c0-0.368,0.291-0.667,0.648-0.667s0.648,0.299,0.648,0.667C6.648,1.696,6.358,1.994,6,1.994z"/>
</g>
</svg>
